# xmcd
# 
# Track frame offsets:
#   150
#   3689
#   22335
#   46559
#   50903
#   73548
#   78827
#   102888
#   133581
#   151786
# 
# Disc length: 2195 seconds
# 
# Revision: 1
# Processed by: cddbd v1.5.1PL0 Copyright (c) Steve Scherf et al.
# Submitted via: VOLTOCDX V1.0.24 
# 
DISCID=7a08910a
DTITLE=My Artist - My Title
DYEAR=2005
DGENRE=Description of the extended genre
TTITLE0=
TTITLE1=
TTITLE2=
TTITLE3=
TTITLE4=
TTITLE5=The Process
TTITLE6=Imagine Me
TTITLE7=Could've Been
TTITLE8=Better
TTITLE9=Afterwhile
EXTD=Extended CD description
EXTT0=
EXTT1=
EXTT2=
EXTT3=
EXTT4=
EXTT5=
EXTT6=
EXTT7=
EXTT8=
EXTT9=
PLAYORDER=
